<?xml version="1.0" encoding="UTF-8" standalone="no"?><!DOCTYPE svg PUBLIC "-//W3C//DTD SVG 1.1//EN" "http://www.w3.org/Graphics/SVG/1.1/DTD/svg11.dtd"><svg width="100%" height="100%" viewBox="0 0 42 42" version="1.1" xmlns="http://www.w3.org/2000/svg" xmlns:xlink="http://www.w3.org/1999/xlink" xml:space="preserve" xmlns:serif="http://www.serif.com/" style="fill-rule:evenodd;clip-rule:evenodd;stroke-linecap:round;stroke-linejoin:round;stroke-miterlimit:1.5;"><path d="M13.329,6.4C15.337,3.051 18.035,1 21,1C23.964,1 26.661,3.049 28.669,6.396C30.507,6.649 32.126,7.378 33.367,8.618C34.61,9.859 35.341,11.481 35.596,13.323C38.946,15.33 40.999,18.027 41,20.993C41.001,23.958 38.95,26.657 35.601,28.667C35.348,30.509 34.617,32.131 33.375,33.374C32.133,34.616 30.512,35.346 28.671,35.6C26.663,38.949 23.965,41 21,41C18.036,41 15.339,38.951 13.331,35.604C11.493,35.351 9.874,34.622 8.633,33.382C7.39,32.141 6.659,30.519 6.404,28.677C3.054,26.67 1.001,23.973 1,21.007C0.999,18.042 3.05,15.343 6.399,13.333C6.652,11.491 7.383,9.869 8.625,8.626C9.867,7.384 11.488,6.654 13.329,6.4ZM20.996,7.634C18.303,6.515 15.642,6.081 13.329,6.4C12.492,7.796 11.774,9.418 11.208,11.211C9.416,11.778 7.795,12.496 6.399,13.333C6.081,15.648 6.517,18.31 7.637,21.004C6.518,23.699 6.085,26.362 6.404,28.677C7.799,29.513 9.419,30.229 11.209,30.794C11.776,32.586 12.494,34.208 13.331,35.604C15.647,35.923 18.31,35.487 21.004,34.366C19.549,33.762 18.085,32.958 16.661,31.964C14.723,31.724 12.891,31.325 11.209,30.794C10.677,29.112 10.278,27.28 10.037,25.341C9.045,23.92 8.241,22.457 7.637,21.004C8.241,19.55 9.044,18.086 10.036,16.663C10.277,14.725 10.676,12.894 11.208,11.211C12.887,10.68 14.718,10.28 16.653,10.039C18.076,9.044 19.541,8.239 20.996,7.634ZM28.669,6.396C26.353,6.077 23.69,6.513 20.996,7.634C22.451,8.238 23.915,9.042 25.339,10.036C27.277,10.276 29.109,10.675 30.791,11.206C31.323,12.888 31.722,14.72 31.963,16.659C32.955,18.08 33.759,19.543 34.363,20.996C33.759,22.45 32.956,23.914 31.964,25.337C31.723,27.275 31.324,29.106 30.792,30.789C29.113,31.32 27.282,31.72 25.347,31.961C23.924,32.956 22.459,33.761 21.004,34.366C23.697,35.485 26.358,35.919 28.671,35.6C29.508,34.204 30.226,32.582 30.792,30.789C32.584,30.222 34.205,29.504 35.601,28.667C35.919,26.352 35.483,23.69 34.363,20.996C35.482,18.301 35.915,15.638 35.596,13.323C34.201,12.487 32.581,11.771 30.791,11.206C30.224,9.414 29.506,7.792 28.669,6.396ZM25.339,10.036C23.941,9.862 22.487,9.771 20.996,9.771C19.505,9.772 18.051,9.864 16.653,10.039C15.411,10.907 14.201,11.918 13.055,13.065C11.91,14.211 10.902,15.421 10.036,16.663C9.863,18.06 9.771,19.511 9.771,21C9.771,22.49 9.863,23.942 10.037,25.341C10.903,26.583 11.913,27.794 13.06,28.94C14.208,30.088 15.419,31.098 16.661,31.964C18.059,32.138 19.513,32.229 21.004,32.229C22.495,32.228 23.949,32.136 25.347,31.961C26.589,31.093 27.799,30.082 28.945,28.935C30.09,27.789 31.098,26.579 31.964,25.337C32.137,23.94 32.229,22.489 32.229,21C32.229,19.51 32.137,18.058 31.963,16.659C31.097,15.417 30.087,14.206 28.94,13.06C27.792,11.912 26.581,10.902 25.339,10.036Z" style="fill:none;stroke:#f96ff3;stroke-opacity:0.69;stroke-width:1.5px;"/><circle cx="21" cy="21" r="7" style="fill:#6eff00;"/></svg>